G75*
%MOIN*%
%OFA0B0*%
%FSLAX25Y25*%
%IPPOS*%
%LPD*%
%AMOC8*
5,1,8,0,0,1.08239X$1,22.5*
%
%ADD10C,0.00000*%
%ADD11R,0.05118X0.05906*%
%ADD12R,0.03937X0.04724*%
%ADD13R,0.05600X0.01100*%
%ADD14R,0.04724X0.04724*%
%ADD15R,0.05000X0.03937*%
%ADD16R,0.03937X0.04331*%
%ADD17R,0.04331X0.03937*%
%ADD18R,0.05906X0.09055*%
D10*
X0049300Y0076800D02*
X0049300Y0286800D01*
X0303300Y0286800D01*
X0309300Y0280800D01*
X0309300Y0235800D01*
X0319300Y0225800D01*
X0319300Y0096800D01*
X0309300Y0086800D01*
X0309300Y0076800D01*
X0049300Y0076800D01*
D11*
X0135560Y0119300D03*
X0143040Y0119300D03*
X0143040Y0144300D03*
X0135560Y0144300D03*
X0279935Y0109925D03*
X0287415Y0109925D03*
X0287415Y0101800D03*
X0279935Y0101800D03*
D12*
X0144300Y0127469D03*
X0144300Y0136131D03*
X0134300Y0136131D03*
X0134300Y0127469D03*
D13*
X0130700Y0155400D03*
X0130700Y0157300D03*
X0130700Y0159300D03*
X0130700Y0161300D03*
X0130700Y0163200D03*
X0147900Y0163200D03*
X0147900Y0161300D03*
X0147900Y0159300D03*
X0147900Y0157300D03*
X0147900Y0155400D03*
D14*
X0068434Y0224300D03*
X0060166Y0224300D03*
X0060166Y0239300D03*
X0068434Y0239300D03*
X0068434Y0254300D03*
X0060166Y0254300D03*
X0060166Y0269300D03*
X0068434Y0269300D03*
D15*
X0135363Y0235540D03*
X0143237Y0231800D03*
X0135363Y0228060D03*
X0135363Y0210540D03*
X0135363Y0203060D03*
X0143237Y0206800D03*
D16*
X0151800Y0203454D03*
X0151800Y0210146D03*
X0151800Y0228454D03*
X0151800Y0235146D03*
X0126800Y0235146D03*
X0126800Y0228454D03*
X0126800Y0210146D03*
X0126800Y0203454D03*
X0121800Y0165146D03*
X0121800Y0158454D03*
X0114300Y0158454D03*
X0114300Y0165146D03*
X0159300Y0160146D03*
X0159300Y0153454D03*
X0166800Y0153454D03*
X0166800Y0160146D03*
X0166800Y0142646D03*
X0166800Y0135954D03*
X0159300Y0135954D03*
X0159300Y0142646D03*
D17*
X0252829Y0109300D03*
X0259521Y0109300D03*
X0259521Y0102425D03*
X0252829Y0102425D03*
X0090146Y0224300D03*
X0083454Y0224300D03*
X0083454Y0239300D03*
X0090146Y0239300D03*
X0090146Y0254300D03*
X0083454Y0254300D03*
X0083454Y0269300D03*
X0090146Y0269300D03*
D18*
X0309300Y0209989D03*
X0309300Y0183611D03*
X0309300Y0162489D03*
X0309300Y0136111D03*
M02*
