%
M48
M72
T01C0.0122
T02C0.0394
T03C0.0551
%
T01
X10155Y13855
X10805Y16055
X10555Y16430
X10405Y16980
X13030Y16605
X13055Y15180
X12805Y14805
X15180Y15180
X15430Y16305
X15305Y16805
X16280Y17855
X16180Y19180
X15780Y19980
X16305Y20055
X15780Y20730
X14305Y21180
X13555Y21680
X14305Y22805
X15305Y22180
X14680Y24055
X15555Y26430
X17530Y25355
X18930Y24555
X20330Y25980
X22230Y26080
X26230Y24280
X29730Y22480
X24530Y12280
X25305Y10618
X18930Y10680
X16680Y14805
X15030Y18605
X13030Y18355
X10030Y19980
X6930Y21780
X7730Y23380
X8555Y24555
X6130Y26480
X17655Y20105
T02
X12330Y27680
X13330Y27680
X14330Y27680
X15330Y27680
X16330Y27680
X17330Y27680
X18330Y27680
X19330Y27680
X20330Y27680
X21330Y27680
X22930Y27680
X23930Y27680
X24930Y27680
X25930Y27680
X26930Y27680
X27930Y27680
X28930Y27680
X29930Y27680
X22680Y21680
X21680Y21680
X20680Y21680
X19680Y21680
X19680Y18180
X20680Y18180
X21680Y18180
X22680Y18180
X26180Y18180
X27180Y18180
X28180Y18180
X28180Y19930
X27180Y19930
X26180Y19930
X26180Y14180
X27180Y14180
X28180Y14180
X28180Y12430
X27180Y12430
X26180Y12430
X25930Y8680
X26930Y8680
X27930Y8680
X28930Y8680
X29930Y8680
X24930Y8680
X22930Y8680
X21930Y8680
X20930Y8680
X19930Y8680
X18930Y8680
X17930Y8680
X16930Y8680
X15930Y8680
X19680Y12430
X20680Y12430
X21680Y12430
X21680Y14180
X20680Y14180
X19680Y14180
X10430Y8930
X9430Y8930
X8430Y8930
X7430Y8930
T03
X6180Y13696
X6180Y15664
X6180Y17696
X6180Y19664
M30
